<svg width="756" height="440" viewBox="0 0 756 440" xmlns="http://www.w3.org/2000/svg"><title>Artboard 13</title><g fill="none" fill-rule="evenodd"><path fill="#F2F2F2" d="M-4-11h770v461H-4z"/><path d="M-337.096-247.633L101.112 516.79M-210.24-247.633L227.969 516.79M-84.117-247.633L354.092 516.79M42.006-247.633L480.215 516.79M168.13-247.633L606.337 516.79M294.276-247.633L732.485 516.79M420.49-248L611.798 85.723l246.9 430.701M539-262L730.308 71.723l246.9 430.701M83.803-247.633L-354.406 516.79m564.332-764.423L-228.283 516.79M-641.004 8.736H777.834M-534.621 339.167H793.5M-641.004 118.808H801.533M-641.004 228.88h1412.56M336.049-247.633L-102.16 516.79m564.332-764.423L23.963 516.79m564.356-764.423L150.11 516.79m564.356-764.423L276.256 516.79m564.422-763.789l-438.21 764.424M975.209-262L537 502.424M1009.209-101L571 663.424" opacity=".69" stroke="#E2E2E2" stroke-linecap="square"/><path stroke="#E5E5E5" stroke-width="2.5" fill="#FFF" d="M382.223 118.979l-2.027 3.51h-4.053l-2.026-3.51 2.026-3.51h4.053z"/><path stroke="#E5E5E5" stroke-width="3" fill="#FFF" d="M193.783 8.898l-2.314 4.008h-4.627l-2.314-4.008 2.314-4.008h4.627z"/><path stroke="#DDD" stroke-width="3" fill="#FFF" d="M698.783 8.898l-2.314 4.008h-4.627l-2.314-4.008 2.314-4.008h4.627zM67.412 229.036l-2.314 4.008H60.47l-2.314-4.008 2.314-4.008h4.628z"/><path stroke="#DDD" stroke-width="2.5" fill="#FFF" d="M508.502 339.191l-2.027 3.51h-4.053l-2.026-3.51 2.026-3.51h4.053z"/><path d="M567.789 233.405a4.5 4.5 0 1 0 0-9 4.5 4.5 0 0 0 0 9z" stroke="#DDD" fill="#FFF"/><path d="M567.84 231.388a2.5 2.5 0 1 0 0-5 2.5 2.5 0 0 0 0 5z" fill="#EBEBEB"/><path d="M126.061 123.365a4.5 4.5 0 1 0 0-9 4.5 4.5 0 0 0 0 9z" stroke="#EBEBEB" fill="#FFF"/><path d="M126.034 121.332a2.5 2.5 0 1 0 0-5 2.5 2.5 0 0 0 0 5z" fill="#EBEBEB"/><path d="M252.208 343.704a4.5 4.5 0 1 0 0-9 4.5 4.5 0 0 0 0 9z" stroke="#EBEBEB" fill="#FFF"/><path d="M252.238 341.692a2.5 2.5 0 1 0 0-5 2.5 2.5 0 0 0 0 5z" fill="#EBEBEB"/></g></svg>